# xmcd
#
# Track frame offsets: 
#        150
#        24623
#        48999
#        73047
#        95140
#        116396
#        143238
#        163223
#        184323
#        203396
#        222794
#
# Disc length: 3320 seconds
#
# Revision: 0
# Processed by: cddbd v1.5.2PL0 Copyright (c) Steve Scherf et al.
# Submitted via: ExactAudioCopy v0.99pb5
#
DISCID=9f0cf60b
DTITLE=Tim Carbone - Along The Path
DYEAR=2003
DGENRE=Alternative
TTITLE0=Sideshow Song
TTITLE1=Time
TTITLE2=Place I Live
TTITLE3=Don't Give Up
TTITLE4=Fear of Falling
TTITLE5=House of Hearts Desire
TTITLE6=Miss Mary Mack
TTITLE7=Solitary Man
TTITLE8=Brand New Beast
TTITLE9=Man Overboard
TTITLE10=House of Hearts Desire.
EXTD=
EXTT0=
EXTT1=
EXTT2=
EXTT3=
EXTT4=
EXTT5=
EXTT6=
EXTT7=
EXTT8=
EXTT9=
EXTT10=
PLAYORDER=
